<svg class="diagram-root" style="background: #f5f6f6" xmlns="http://www.w3.org/2000/svg" xmlns:xlink="http://www.w3.org/1999/xlink"><style>.diagram-root { font-family: "Helvetica Neue", sans-serif; font-size: 12px; } .t { overflow: visible; } .t-bg { y: 40; fill: #fff;   } .th { fill: #005aa0;   } .tht { fill: #fff; font-size: 14px;  } .tf { fill: #323c46; overflow: visible; } .tf.pk { fill: #005aa0; font-weight: bold; } .tf.fk { font-weight: bold; } .ty { fill: #adb1b5; font-weight: normal; text-anchor: end; } .r { fill: transparent; stroke: #c3c3c3; stroke-width: 1; } .l { stroke: 1; } .i { fill: #c2c7ce; stroke: #c2c7ce; } .i.ix { fill: #afb3b6; stroke: #000; } .fa { fill: transparent; overflow: visible; } .fa .bg.hover { fill: #f7f7f7; } .c { cy: 12; r: 4; stroke: #d2d2dc; fill: #d2d2dc; } .hr { fill: transparent; stroke: #323c46; stroke-opacity: 0.035; stroke-width: 13; } .dc { stroke: #fa5a3c; fill: #fa5a3c; } .x { stroke: white; stroke-width: 1; } .hl .th { fill: #1b9bff; } .hl .tht {  } .fhl .bg { fill: #e7f4ff; } .fhls .bg {  } .r.hl { stroke: #1b9bff; } .dim { opacity: 0.25; }</style><g class="drawing-wrapper" transform="translate(2, 18) scale(1,1)"><g class="rs"><path d="M 213 87 m -1, 0 a 1,1 0 1,0 2,0 a 1,1 0 1,0 -2,0 M 213 87 m -0.5, 0 a 0.5,0.5 0 1,0 1,0 a 0.5,0.5 0 1,0 -1,0  M213 87 L213 87 225 87 M 213 93 m -1, 0 a 1,1 0 1,0 2,0 a 1,1 0 1,0 -2,0 M 213 93 m -0.5, 0 a 0.5,0.5 0 1,0 1,0 a 0.5,0.5 0 1,0 -1,0  M213 93 L213 93 220 87 213 81 M 213 81 m -1, 0 a 1,1 0 1,0 2,0 a 1,1 0 1,0 -2,0 M 213 81 m -0.5, 0 a 0.5,0.5 0 1,0 1,0 a 0.5,0.5 0 1,0 -1,0  M225 87 Q 269.78 87, 314.56 100.61 T 404.11 114.22 M 416.11 114.22 m -1, 0 a 1,1 0 1,0 2,0 a 1,1 0 1,0 -2,0 M 416.11 114.22 m -0.5, 0 a 0.5,0.5 0 1,0 1,0 a 0.5,0.5 0 1,0 -1,0  M416.11 114.22 L416.11 114.22 404.11 114.22 M410.11 120.22 L410.11 120.22 410.11 108.22" id="h3262257808" class="r"></path><path d="M 237.56 318.11 m -1, 0 a 1,1 0 1,0 2,0 a 1,1 0 1,0 -2,0 M 237.56 318.11 m -0.5, 0 a 0.5,0.5 0 1,0 1,0 a 0.5,0.5 0 1,0 -1,0  M237.56 318.11 L237.56 318.11 249.56 318.11 M 237.56 324.11 m -1, 0 a 1,1 0 1,0 2,0 a 1,1 0 1,0 -2,0 M 237.56 324.11 m -0.5, 0 a 0.5,0.5 0 1,0 1,0 a 0.5,0.5 0 1,0 -1,0  M237.56 324.11 L237.56 324.11 244.56 318.11 237.56 312.11 M 237.56 312.11 m -1, 0 a 1,1 0 1,0 2,0 a 1,1 0 1,0 -2,0 M 237.56 312.11 m -0.5, 0 a 0.5,0.5 0 1,0 1,0 a 0.5,0.5 0 1,0 -1,0  M249.56 318.11 Q 288.2 318.11, 326.84 353.67 T 404.11 389.22 M 416.11 389.22 m -1, 0 a 1,1 0 1,0 2,0 a 1,1 0 1,0 -2,0 M 416.11 389.22 m -0.5, 0 a 0.5,0.5 0 1,0 1,0 a 0.5,0.5 0 1,0 -1,0  M416.11 389.22 L416.11 389.22 404.11 389.22 M410.11 395.22 L410.11 395.22 410.11 383.22" id="h2713302121" class="r"></path><path d="M 254.11 540.3299999999999 m -1, 0 a 1,1 0 1,0 2,0 a 1,1 0 1,0 -2,0 M 254.11 540.3299999999999 m -0.5, 0 a 0.5,0.5 0 1,0 1,0 a 0.5,0.5 0 1,0 -1,0  M254.11 540.3299999999999 L254.11 540.3299999999999 266.11 540.3299999999999 M 254.11 546.3299999999999 m -1, 0 a 1,1 0 1,0 2,0 a 1,1 0 1,0 -2,0 M 254.11 546.3299999999999 m -0.5, 0 a 0.5,0.5 0 1,0 1,0 a 0.5,0.5 0 1,0 -1,0  M254.11 546.3299999999999 L254.11 546.3299999999999 261.11 540.3299999999999 254.11 534.3299999999999 M 254.11 534.3299999999999 m -1, 0 a 1,1 0 1,0 2,0 a 1,1 0 1,0 -2,0 M 254.11 534.3299999999999 m -0.5, 0 a 0.5,0.5 0 1,0 1,0 a 0.5,0.5 0 1,0 -1,0  M266.11 540.3299999999999 Q 300.61 540.3299999999999, 335.11 477.28 T 404.11 414.22 M 416.11 414.22 m -1, 0 a 1,1 0 1,0 2,0 a 1,1 0 1,0 -2,0 M 416.11 414.22 m -0.5, 0 a 0.5,0.5 0 1,0 1,0 a 0.5,0.5 0 1,0 -1,0  M416.11 414.22 L416.11 414.22 404.11 414.22 M410.11 420.22 L410.11 420.22 410.11 408.22" id="h3594056359" class="r"></path></g><g class="hrs"></g><g class="ts"><svg width="183" height="150" x="30" y="30" id="h1105663888" class="t"><rect height="40" width="183" class="th"></rect><text x="13" y="25" class="tht">contact</text><rect height="110" width="183" class="t-bg" y="40"></rect><text x="13" y="61" class="tf pk">contact_id<tspan x="170" class="ty">INTEGER</tspan></text><path d="M7,14A2,2 0 0,1 5,12A2,2 0 0,1 7,10A2,2 0 0,1 9,12A2,2 0 0,1 7,14M12.65,10C11.83,7.67 9.61,6 7, 6A6, 6 0 0, 0 1, 12A6, 6 0 0, 0 7, 18C9.61, 18 11.83, 16.33 12.65, 14H17V18H21V14H23V10H12.65Z" class="i pk" transform="translate(97, 48) scale(0.65)"></path><text x="13" y="86" class="tf">first_name<tspan x="170" class="ty">VARCHAR(50)</tspan></text><text x="13" y="111" class="tf">last_name<tspan x="170" class="ty">VARCHAR(50)</tspan></text><text x="13" y="136" class="tf">email<tspan x="170" class="ty">VARCHAR(50)</tspan></text></svg><svg width="207" height="100" x="30.56" y="261.11" id="h2794354149" class="t"><rect height="40" width="207" class="th"></rect><text x="13" y="25" class="tht">category</text><rect height="60" width="207" class="t-bg" y="40"></rect><text x="13" y="61" class="tf pk">category_id<tspan x="194" class="ty">VARCHAR(50)</tspan></text><path d="M7,14A2,2 0 0,1 5,12A2,2 0 0,1 7,10A2,2 0 0,1 9,12A2,2 0 0,1 7,14M12.65,10C11.83,7.67 9.61,6 7, 6A6, 6 0 0, 0 1, 12A6, 6 0 0, 0 7, 18C9.61, 18 11.83, 16.33 12.65, 14H17V18H21V14H23V10H12.65Z" class="i pk" transform="translate(96, 48) scale(0.65)"></path><text x="13" y="86" class="tf">category<tspan x="194" class="ty">VARCHAR(50)</tspan></text></svg><svg width="228" height="100" x="26.11" y="483.33" id="h1568904301" class="t"><rect height="40" width="228" class="th"></rect><text x="13" y="25" class="tht">subcategory</text><rect height="60" width="228" class="t-bg" y="40"></rect><text x="13" y="61" class="tf pk">subcategory_id<tspan x="215" class="ty">VARCHAR(50)</tspan></text><path d="M7,14A2,2 0 0,1 5,12A2,2 0 0,1 7,10A2,2 0 0,1 9,12A2,2 0 0,1 7,14M12.65,10C11.83,7.67 9.61,6 7, 6A6, 6 0 0, 0 1, 12A6, 6 0 0, 0 7, 18C9.61, 18 11.83, 16.33 12.65, 14H17V18H21V14H23V10H12.65Z" class="i pk" transform="translate(117, 48) scale(0.65)"></path><text x="13" y="86" class="tf">subcategory<tspan x="215" class="ty">VARCHAR(50)</tspan></text></svg><svg width="208" height="400" x="416.11" y="32.22" id="h3174385209" class="t"><rect height="40" width="208" class="th"></rect><text x="13" y="25" class="tht">campain</text><rect height="360" width="208" class="t-bg" y="40"></rect><text x="13" y="61" class="tf pk">cf_id<tspan x="195" class="ty">INTEGER</tspan></text><path d="M7,14A2,2 0 0,1 5,12A2,2 0 0,1 7,10A2,2 0 0,1 9,12A2,2 0 0,1 7,14M12.65,10C11.83,7.67 9.61,6 7, 6A6, 6 0 0, 0 1, 12A6, 6 0 0, 0 7, 18C9.61, 18 11.83, 16.33 12.65, 14H17V18H21V14H23V10H12.65Z" class="i pk" transform="translate(122, 48) scale(0.65)"></path><text x="13" y="86" class="tf fk">contact_id<tspan x="195" class="ty">INTEGER</tspan></text><text x="13" y="111" class="tf">company<tspan x="195" class="ty">VARCHAR(50)</tspan></text><text x="13" y="136" class="tf">description<tspan x="195" class="ty">VARCHAR(225)</tspan></text><text x="13" y="161" class="tf">goal<tspan x="195" class="ty">INTEGER</tspan></text><text x="13" y="186" class="tf">pledge<tspan x="195" class="ty">INTEGER</tspan></text><text x="13" y="211" class="tf">outcome<tspan x="195" class="ty">VARCHAR(50)</tspan></text><text x="13" y="236" class="tf">backers_count<tspan x="195" class="ty">INTEGER</tspan></text><text x="13" y="261" class="tf">country<tspan x="195" class="ty">VARCHAR(50)</tspan></text><text x="13" y="286" class="tf">currency<tspan x="195" class="ty">VARCHAR(50)</tspan></text><text x="13" y="311" class="tf">launched_date<tspan x="195" class="ty">DATE</tspan></text><text x="13" y="336" class="tf">end_date<tspan x="195" class="ty">DATE</tspan></text><text x="13" y="361" class="tf fk">category_id<tspan x="195" class="ty">VARCHAR(50)</tspan></text><text x="13" y="386" class="tf fk">subcategory_id<tspan x="195" class="ty">VARCHAR(50)</tspan></text></svg></g></g><text class="qdbd-link" x="10" y="20">www.quickdatabasediagrams.com</text></svg>